<svg id="Layer_1" height="512" viewBox="0 0 512 512" width="512" xmlns="http://www.w3.org/2000/svg" data-name="Layer 1"><path d="m396.2 187.74h-.01-280.57l-62.79 49.4v5.87h405.09v-6.34l.08-.1z" fill="#af6861"/><path d="m52.83 243.01h405.09v59.67h-405.09z" fill="#774d47"/><path d="m329.1 134.73h-146.1l-67.38 53.01h280.57z" fill="#774d47"/><path d="m464.44 162.32-181.88-137.16a43.093 43.093 0 0 0 -53.07-.04l-176.81 137.92c-14.75 11.51-29.31 26.03-23.29 47.97 0 0 7.18 11.34 11.89 8.79l.9-.71 205.92-162.09a11.242 11.242 0 0 1 3.58-1.93 13.2 13.2 0 0 1 4.23-.68 12.536 12.536 0 0 1 7.71 2.53l203.4 159.71a11.815 11.815 0 0 0 7.25 2.57c4.43 0 8.44-2.71 9.06-7.73 2.31-18.52-.78-33.29-18.89-49.15z" fill="#6d7486"/><g fill="#af6861"><path d="m329.1 134.73h-146.1l66.9-52.64a10.471 10.471 0 0 1 12.5-.06z"/><path d="m52.83 302.68h405.09v59.67h-405.09z"/><path d="m52.83 422.02h405.09v46.25h-405.09z"/></g><path d="m418.56 76.38a11.65 11.65 0 1 1 0 23.3h-43.96a11.65 11.65 0 1 1 0-23.3z" fill="#ad5e73"/><path d="m375.45 99.68v45.05l42.6 33.45v-78.5z" fill="#e87187"/><path d="m52.83 362.35h405.09v59.67h-405.09z" fill="#774d47"/><path d="m478.4 225.57-214.78-168.65a12.536 12.536 0 0 0 -7.71-2.53 13.2 13.2 0 0 0 -4.23.68 11.242 11.242 0 0 0 -3.58 1.93l-214.97 169.21a10.388 10.388 0 0 0 13.07 16.15l203.7-160.27a10.471 10.471 0 0 1 12.5-.06l203.02 160.41a10.643 10.643 0 0 0 12.98-16.87z" fill="#6e6b99"/><path d="m311.11 270.18h-110.38a11.135 11.135 0 0 0 -11.12 11.15v186.94h132.62v-186.94a11.135 11.135 0 0 0 -11.12-11.15z" fill="#5fa8ed"/><path d="m52.83 422.02h30v46.25h-30z" fill="#874e4c"/><path d="m82.83 237.14 62.79-49.4h-30l-62.79 49.4v5.87h30z" fill="#874e4c"/><path d="m52.83 243.01h30v59.67h-30z" fill="#5e3b38"/><path d="m52.83 302.68h30v59.67h-30z" fill="#874e4c"/><path d="m52.83 362.35h30v59.67h-30z" fill="#5e3b38"/><path d="m230.73 270.18h-30a11.135 11.135 0 0 0 -11.12 11.15v186.94h30v-186.94a11.135 11.135 0 0 1 11.12-11.15z" fill="#518ebf"/><path d="m468.79 468.27h-426.15a13.865 13.865 0 0 0 0 27.73h426.15a13.865 13.865 0 0 0 0-27.73z" fill="#6e6b99"/><path d="m58.8 482.13a13.862 13.862 0 0 1 13.84-13.86h-30a13.865 13.865 0 0 0 0 27.73h30a13.857 13.857 0 0 1 -13.84-13.87z" fill="#5c5c7f"/><path d="m298.227 388.815a6 6 0 0 1 -6-6v-14.43a6 6 0 0 1 12 0v14.43a6 6 0 0 1 -6 6z" fill="#4e6dca"/></svg>